<?xml version="1.0" encoding="UTF-8"?>
<svg xmlns="http://www.w3.org/2000/svg" xmlns:xlink="http://www.w3.org/1999/xlink" width="16px" height="16px" viewBox="0 0 16 16" version="1.1">
<g id="surface1">
<path style=" stroke:none;fill-rule:evenodd;fill:rgb(48.235294%,74.117647%,92.54902%);fill-opacity:1;" d="M 14.25 8.25 C 14.25 4.660156 11.339844 1.75 7.75 1.75 C 4.160156 1.75 1.25 4.660156 1.25 8.25 C 1.25 11.839844 4.160156 14.75 7.75 14.75 C 11.339844 14.75 14.25 11.839844 14.25 8.25 "/>
<path style=" stroke:none;fill-rule:evenodd;fill:rgb(91.372549%,93.72549%,98.039216%);fill-opacity:1;" d="M 4.703125 7.722656 L 4.703125 7.71875 C 4.550781 7.582031 4.347656 7.5 4.125 7.5 C 3.640625 7.5 3.25 7.890625 3.25 8.375 C 3.25 8.734375 3.46875 9.042969 3.78125 9.179688 C 3.875 8.625 4.203125 8.125 4.703125 7.722656 "/>
<path style=" stroke:none;fill-rule:evenodd;fill:rgb(91.372549%,93.72549%,98.039216%);fill-opacity:1;" d="M 11.375 7.5 C 11.152344 7.5 10.949219 7.582031 10.796875 7.71875 L 10.800781 7.722656 C 11.292969 8.125 11.625 8.621094 11.71875 9.171875 L 11.722656 9.179688 C 12.03125 9.042969 12.25 8.734375 12.25 8.375 C 12.25 7.890625 11.859375 7.5 11.375 7.5 "/>
<path style=" stroke:none;fill-rule:evenodd;fill:rgb(91.372549%,93.72549%,98.039216%);fill-opacity:1;" d="M 11.75 9.5 C 11.75 11.019531 9.960938 12.25 7.75 12.25 C 5.539062 12.25 3.75 11.019531 3.75 9.5 C 3.75 7.980469 5.539062 6.75 7.75 6.75 C 9.960938 6.75 11.75 7.980469 11.75 9.5 "/>
<path style=" stroke:none;fill-rule:evenodd;fill:rgb(91.372549%,93.72549%,98.039216%);fill-opacity:1;" d="M 10.25 5.5 C 10.25 5.914062 10.585938 6.25 11 6.25 C 11.414062 6.25 11.75 5.914062 11.75 5.5 C 11.75 5.085938 11.414062 4.75 11 4.75 C 10.585938 4.75 10.25 5.085938 10.25 5.5 "/>
<path style=" stroke:none;fill-rule:evenodd;fill:rgb(96.470588%,64.705882%,38.823529%);fill-opacity:1;" d="M 6.75 9.25 C 6.75 9.527344 6.527344 9.75 6.25 9.75 C 5.972656 9.75 5.75 9.527344 5.75 9.25 C 5.75 8.972656 5.972656 8.75 6.25 8.75 C 6.527344 8.75 6.75 8.972656 6.75 9.25 "/>
<path style=" stroke:none;fill-rule:evenodd;fill:rgb(96.470588%,64.705882%,38.823529%);fill-opacity:1;" d="M 9.75 9.25 C 9.75 9.527344 9.527344 9.75 9.25 9.75 C 8.972656 9.75 8.75 9.527344 8.75 9.25 C 8.75 8.972656 8.972656 8.75 9.25 8.75 C 9.527344 8.75 9.75 8.972656 9.75 9.25 "/>
<path style="fill:none;stroke-width:2;stroke-linecap:round;stroke-linejoin:round;stroke:rgb(25.490196%,27.058824%,27.843137%);stroke-opacity:1;stroke-miterlimit:4;" d="M 52 26 C 52 40.359375 40.359375 52 26 52 C 11.640625 52 0 40.359375 0 26 C 0 11.640625 11.640625 0 26 0 C 40.359375 0 52 11.640625 52 26 Z M 52 26 " transform="matrix(0.25,0,0,0.25,1.25,1.75)"/>
<path style="fill:none;stroke-width:2;stroke-linecap:round;stroke-linejoin:round;stroke:rgb(25.490196%,27.058824%,27.843137%);stroke-opacity:1;stroke-miterlimit:4;" d="M 22 30 C 22 31.109375 21.109375 32 20 32 C 18.890625 32 18 31.109375 18 30 C 18 28.890625 18.890625 28 20 28 C 21.109375 28 22 28.890625 22 30 Z M 22 30 " transform="matrix(0.25,0,0,0.25,1.25,1.75)"/>
<path style="fill:none;stroke-width:2;stroke-linecap:round;stroke-linejoin:round;stroke:rgb(25.490196%,27.058824%,27.843137%);stroke-opacity:1;stroke-miterlimit:4;" d="M 34 30 C 34 31.109375 33.109375 32 32 32 C 30.890625 32 30 31.109375 30 30 C 30 28.890625 30.890625 28 32 28 C 33.109375 28 34 28.890625 34 30 Z M 34 30 " transform="matrix(0.25,0,0,0.25,1.25,1.75)"/>
<path style="fill:none;stroke-width:2.098;stroke-linecap:round;stroke-linejoin:round;stroke:rgb(25.490196%,27.058824%,27.843137%);stroke-opacity:1;stroke-miterlimit:4;" d="M 42 31 C 42 37.078125 34.84375 42 26 42 C 17.15625 42 10 37.078125 10 31 C 10 24.921875 17.15625 20 26 20 C 34.84375 20 42 24.921875 42 31 Z M 42 31 " transform="matrix(0.25,0,0,0.25,1.25,1.75)"/>
<path style="fill:none;stroke-width:2.098;stroke-linecap:round;stroke-linejoin:round;stroke:rgb(25.490196%,27.058824%,27.843137%);stroke-opacity:1;stroke-miterlimit:4;" d="M 26 20 L 28 12 L 36.109375 14.21875 " transform="matrix(0.25,0,0,0.25,1.25,1.75)"/>
<path style="fill:none;stroke-width:2.098;stroke-linecap:round;stroke-linejoin:round;stroke:rgb(25.490196%,27.058824%,27.843137%);stroke-opacity:1;stroke-miterlimit:4;" d="M 36 15 C 36 16.65625 37.34375 18 39 18 C 40.65625 18 42 16.65625 42 15 C 42 13.34375 40.65625 12 39 12 C 37.34375 12 36 13.34375 36 15 Z M 36 15 " transform="matrix(0.25,0,0,0.25,1.25,1.75)"/>
<path style="fill:none;stroke-width:2.098;stroke-linecap:round;stroke-linejoin:round;stroke:rgb(25.490196%,27.058824%,27.843137%);stroke-opacity:1;stroke-miterlimit:4;" d="M 10.140625 29.71875 C 8.875 29.1875 8 27.953125 8 26.5 C 8 24.5625 9.5625 23 11.5 23 C 12.390625 23 13.203125 23.328125 13.8125 23.875 " transform="matrix(0.25,0,0,0.25,1.25,1.75)"/>
<path style="fill:none;stroke-width:2.098;stroke-linecap:round;stroke-linejoin:round;stroke:rgb(25.490196%,27.058824%,27.843137%);stroke-opacity:1;stroke-miterlimit:4;" d="M 38.1875 23.875 C 38.796875 23.328125 39.609375 23 40.5 23 C 42.4375 23 44 24.5625 44 26.5 C 44 27.9375 43.125 29.171875 41.890625 29.71875 " transform="matrix(0.25,0,0,0.25,1.25,1.75)"/>
<path style="fill:none;stroke-width:2.098;stroke-linecap:round;stroke-linejoin:round;stroke:rgb(25.490196%,27.058824%,27.843137%);stroke-opacity:1;stroke-miterlimit:4;" d="M 21 37 C 21 37 23 38 26 38 C 29 38 31 37 31 37 " transform="matrix(0.25,0,0,0.25,1.25,1.75)"/>
</g>
</svg>
